<svg xmlns="http://www.w3.org/2000/svg" width="200.25" viewBox="0 0 200.25 30" height="30" version="1.0"><g fill="#141414"><g><g><path d="M 11.609375 0.375 C 9.234375 0.375 7.316406 0.117188 5.859375 -0.390625 C 4.410156 -0.898438 3.304688 -1.597656 2.546875 -2.484375 C 1.785156 -3.378906 1.273438 -4.410156 1.015625 -5.578125 L 8.84375 -5.578125 C 9.414062 -4.742188 10.335938 -4.328125 11.609375 -4.328125 C 12.867188 -4.328125 13.789062 -4.742188 14.375 -5.578125 C 14.425781 -5.660156 14.453125 -5.734375 14.453125 -5.796875 C 14.453125 -6.023438 14.160156 -6.191406 13.578125 -6.296875 C 12.992188 -6.410156 12.117188 -6.492188 10.953125 -6.546875 C 9.492188 -6.617188 7.960938 -6.773438 6.359375 -7.015625 C 2.773438 -7.566406 0.984375 -9.007812 0.984375 -11.34375 C 0.984375 -11.539062 0.992188 -11.75 1.015625 -11.96875 C 1.273438 -13.132812 1.785156 -14.160156 2.546875 -15.046875 C 3.304688 -15.941406 4.410156 -16.644531 5.859375 -17.15625 C 7.316406 -17.664062 9.234375 -17.921875 11.609375 -17.921875 C 13.984375 -17.921875 15.894531 -17.664062 17.34375 -17.15625 C 18.800781 -16.644531 19.910156 -15.941406 20.671875 -15.046875 C 21.429688 -14.160156 21.941406 -13.132812 22.203125 -11.96875 L 14.375 -11.96875 C 13.789062 -12.800781 12.867188 -13.21875 11.609375 -13.21875 C 10.335938 -13.21875 9.414062 -12.800781 8.84375 -11.96875 C 8.800781 -11.894531 8.78125 -11.832031 8.78125 -11.78125 C 8.78125 -11.582031 9.054688 -11.4375 9.609375 -11.34375 C 10.171875 -11.25 11 -11.171875 12.09375 -11.109375 C 13.1875 -11.046875 14.347656 -10.9375 15.578125 -10.78125 C 16.804688 -10.632812 17.957031 -10.378906 19.03125 -10.015625 C 20.101562 -9.660156 20.941406 -9.125 21.546875 -8.40625 C 22.023438 -7.863281 22.265625 -7.171875 22.265625 -6.328125 C 22.265625 -6.085938 22.242188 -5.835938 22.203125 -5.578125 C 21.941406 -4.410156 21.429688 -3.378906 20.671875 -2.484375 C 19.910156 -1.597656 18.800781 -0.898438 17.34375 -0.390625 C 15.894531 0.117188 13.984375 0.375 11.609375 0.375 Z M 11.609375 0.375" transform="translate(22.83 22.767)"/></g></g></g><g fill="#141414"><g><g><path d="M 13.28125 0.375 C 8.9375 0.375 5.742188 -0.515625 3.703125 -2.296875 C 1.890625 -3.878906 0.984375 -6.039062 0.984375 -8.78125 C 0.984375 -11.507812 1.890625 -13.664062 3.703125 -15.25 C 5.742188 -17.03125 8.9375 -17.921875 13.28125 -17.921875 C 17.625 -17.921875 20.820312 -17.03125 22.875 -15.25 C 24.6875 -13.664062 25.59375 -11.507812 25.59375 -8.78125 C 25.59375 -6.039062 24.6875 -3.878906 22.875 -2.296875 C 20.820312 -0.515625 17.625 0.375 13.28125 0.375 Z M 13.28125 -4.328125 C 15.0625 -4.328125 16.367188 -4.835938 17.203125 -5.859375 C 17.867188 -6.691406 18.203125 -7.664062 18.203125 -8.78125 C 18.203125 -9.894531 17.867188 -10.863281 17.203125 -11.6875 C 16.367188 -12.707031 15.0625 -13.21875 13.28125 -13.21875 C 11.5 -13.21875 10.191406 -12.707031 9.359375 -11.6875 C 8.679688 -10.863281 8.34375 -9.894531 8.34375 -8.78125 C 8.34375 -7.664062 8.679688 -6.691406 9.359375 -5.859375 C 10.191406 -4.835938 11.5 -4.328125 13.28125 -4.328125 Z M 13.28125 -4.328125" transform="translate(45.44 22.767)"/></g></g></g><g fill="#141414"><g><g><path d="M 29.515625 0 L 22.046875 0 L 20.390625 -2.875 L 9.3125 -2.875 L 7.65625 0 L 0.1875 0 L 11.421875 -17.5625 L 18.265625 -17.5625 Z M 17.90625 -7.21875 L 14.859375 -12.546875 L 11.796875 -7.21875 Z M 17.90625 -7.21875" transform="translate(71.381 22.767)"/></g></g></g><g fill="#141414"><g><g><path d="M 25.953125 0 L 18.984375 0 C 18.660156 -0.4375 18.4375 -1 18.3125 -1.6875 C 18.195312 -2.21875 18.023438 -2.738281 17.796875 -3.25 C 17.566406 -3.757812 17.171875 -4.179688 16.609375 -4.515625 C 16.046875 -4.859375 15.21875 -5.039062 14.125 -5.0625 L 9.328125 -5.0625 L 9.328125 0 L 1.953125 0 L 1.953125 -17.578125 L 13.953125 -17.578125 C 16.816406 -17.578125 19.125 -17.359375 20.875 -16.921875 C 22.632812 -16.492188 23.921875 -15.820312 24.734375 -14.90625 C 25.546875 -13.988281 25.953125 -12.789062 25.953125 -11.3125 C 25.953125 -10.082031 25.671875 -9.046875 25.109375 -8.203125 C 24.546875 -7.359375 23.660156 -6.691406 22.453125 -6.203125 C 23.617188 -5.722656 24.375 -5.144531 24.71875 -4.46875 C 25.070312 -3.800781 25.289062 -3.0625 25.375 -2.25 C 25.457031 -1.53125 25.648438 -0.78125 25.953125 0 Z M 9.328125 -9.40625 L 13.546875 -9.421875 C 14.722656 -9.421875 15.648438 -9.472656 16.328125 -9.578125 C 17.003906 -9.679688 17.503906 -9.820312 17.828125 -10 C 18.148438 -10.1875 18.351562 -10.390625 18.4375 -10.609375 C 18.53125 -10.835938 18.578125 -11.070312 18.578125 -11.3125 C 18.578125 -11.550781 18.53125 -11.785156 18.4375 -12.015625 C 18.351562 -12.242188 18.148438 -12.445312 17.828125 -12.625 C 17.503906 -12.8125 17.003906 -12.957031 16.328125 -13.0625 C 15.648438 -13.164062 14.722656 -13.21875 13.546875 -13.21875 L 9.328125 -13.21875 Z M 9.328125 -9.40625" transform="translate(100.444 22.767)"/></g></g></g><g fill="#141414"><g><g><path d="M 23.125 0 L 1.953125 0 L 1.953125 -17.578125 L 22.15625 -17.578125 L 22.15625 -13.21875 L 9.328125 -13.21875 L 9.328125 -10.46875 L 20.171875 -10.46875 L 20.171875 -7.09375 L 9.328125 -7.09375 L 9.328125 -4.34375 L 23.125 -4.34375 Z M 23.125 0" transform="translate(126.74 22.767)"/></g></g></g><g fill="#141414"><g><g><path d="M 11.609375 0.375 C 9.234375 0.375 7.316406 0.117188 5.859375 -0.390625 C 4.410156 -0.898438 3.304688 -1.597656 2.546875 -2.484375 C 1.785156 -3.378906 1.273438 -4.410156 1.015625 -5.578125 L 8.84375 -5.578125 C 9.414062 -4.742188 10.335938 -4.328125 11.609375 -4.328125 C 12.867188 -4.328125 13.789062 -4.742188 14.375 -5.578125 C 14.425781 -5.660156 14.453125 -5.734375 14.453125 -5.796875 C 14.453125 -6.023438 14.160156 -6.191406 13.578125 -6.296875 C 12.992188 -6.410156 12.117188 -6.492188 10.953125 -6.546875 C 9.492188 -6.617188 7.960938 -6.773438 6.359375 -7.015625 C 2.773438 -7.566406 0.984375 -9.007812 0.984375 -11.34375 C 0.984375 -11.539062 0.992188 -11.75 1.015625 -11.96875 C 1.273438 -13.132812 1.785156 -14.160156 2.546875 -15.046875 C 3.304688 -15.941406 4.410156 -16.644531 5.859375 -17.15625 C 7.316406 -17.664062 9.234375 -17.921875 11.609375 -17.921875 C 13.984375 -17.921875 15.894531 -17.664062 17.34375 -17.15625 C 18.800781 -16.644531 19.910156 -15.941406 20.671875 -15.046875 C 21.429688 -14.160156 21.941406 -13.132812 22.203125 -11.96875 L 14.375 -11.96875 C 13.789062 -12.800781 12.867188 -13.21875 11.609375 -13.21875 C 10.335938 -13.21875 9.414062 -12.800781 8.84375 -11.96875 C 8.800781 -11.894531 8.78125 -11.832031 8.78125 -11.78125 C 8.78125 -11.582031 9.054688 -11.4375 9.609375 -11.34375 C 10.171875 -11.25 11 -11.171875 12.09375 -11.109375 C 13.1875 -11.046875 14.347656 -10.9375 15.578125 -10.78125 C 16.804688 -10.632812 17.957031 -10.378906 19.03125 -10.015625 C 20.101562 -9.660156 20.941406 -9.125 21.546875 -8.40625 C 22.023438 -7.863281 22.265625 -7.171875 22.265625 -6.328125 C 22.265625 -6.085938 22.242188 -5.835938 22.203125 -5.578125 C 21.941406 -4.410156 21.429688 -3.378906 20.671875 -2.484375 C 19.910156 -1.597656 18.800781 -0.898438 17.34375 -0.390625 C 15.894531 0.117188 13.984375 0.375 11.609375 0.375 Z M 11.609375 0.375" transform="translate(150.208 22.767)"/></g></g></g></svg>