<svg xmlns="http://www.w3.org/2000/svg" width="300" viewBox="0 0 300 75" height="75" version="1.0"><g fill="#141414"><g><g><path d="M 24.15625 -27.84375 L 17.125 0 L 6.484375 0 L -1 -27.84375 L 7.6875 -27.84375 L 11.921875 -5.71875 L 15.71875 -27.84375 Z M 24.15625 -27.84375" transform="translate(3 51)"/></g></g></g><g fill="#141414"><g><g><path d="M 9.953125 -27.84375 L 9.953125 0 L 1.71875 0 L 1.71875 -27.84375 Z M 9.953125 -27.84375" transform="translate(25.158 51)"/></g></g></g><g fill="#141414"><g><g><path d="M 24.3125 0 L 14 0 L 7.921875 -20.3125 L 8.046875 -19.4375 C 8.335938 -17.488281 8.566406 -15.707031 8.734375 -14.09375 C 8.910156 -12.488281 9 -10.671875 9 -8.640625 L 9 0 L 1.71875 0 L 1.71875 -27.84375 L 11.84375 -27.84375 L 18.15625 -7.4375 L 18.046875 -8.28125 C 17.722656 -10.125 17.472656 -11.835938 17.296875 -13.421875 C 17.128906 -15.003906 17.046875 -16.835938 17.046875 -18.921875 L 17.046875 -27.84375 L 24.3125 -27.84375 Z M 24.3125 0" transform="translate(35.837 51)"/></g></g></g><g fill="#141414"><g><g><path d="M 9.953125 -27.84375 L 9.953125 0 L 1.71875 0 L 1.71875 -27.84375 Z M 9.125 -39.359375 L 11.921875 -33.59375 L 1.765625 -29.953125 L -0.234375 -33.921875 Z M 9.125 -39.359375" transform="translate(60.874 51)"/></g></g></g><g fill="#141414"><g><g><path d="M 14.078125 -28.640625 C 17.515625 -28.640625 20.503906 -27.546875 23.046875 -25.359375 L 19.234375 -20.875 C 18.441406 -21.46875 17.664062 -21.921875 16.90625 -22.234375 C 16.144531 -22.554688 15.335938 -22.71875 14.484375 -22.71875 C 12.859375 -22.71875 11.597656 -21.984375 10.703125 -20.515625 C 9.804688 -19.046875 9.359375 -16.875 9.359375 -14 C 9.359375 -11.125 9.8125 -8.972656 10.71875 -7.546875 C 11.625 -6.117188 12.914062 -5.40625 14.59375 -5.40625 C 15.5 -5.40625 16.34375 -5.585938 17.125 -5.953125 C 17.914062 -6.328125 18.796875 -6.890625 19.765625 -7.640625 L 23.359375 -3.078125 C 22.242188 -1.960938 20.890625 -1.035156 19.296875 -0.296875 C 17.710938 0.429688 16.015625 0.796875 14.203125 0.796875 C 11.453125 0.796875 9.078125 0.234375 7.078125 -0.890625 C 5.078125 -2.023438 3.53125 -3.695312 2.4375 -5.90625 C 1.34375 -8.125 0.796875 -10.820312 0.796875 -14 C 0.796875 -17.039062 1.351562 -19.660156 2.46875 -21.859375 C 3.59375 -24.054688 5.15625 -25.734375 7.15625 -26.890625 C 9.15625 -28.054688 11.460938 -28.640625 14.078125 -28.640625 Z M 14.078125 -28.640625" transform="translate(71.553 51)"/></g></g></g><g fill="#141414"><g><g><path d="M 9.953125 -27.84375 L 9.953125 0 L 1.71875 0 L 1.71875 -27.84375 Z M 9.953125 -27.84375" transform="translate(93.91 51)"/></g></g></g><g fill="#141414"><g><g><path d="M 24.4375 -9.4375 C 24.4375 -7.488281 24.007812 -5.738281 23.15625 -4.1875 C 22.300781 -2.644531 21.007812 -1.425781 19.28125 -0.53125 C 17.550781 0.351562 15.414062 0.796875 12.875 0.796875 C 9.0625 0.796875 6.179688 -0.117188 4.234375 -1.953125 C 2.285156 -3.796875 1.3125 -6.289062 1.3125 -9.4375 L 1.3125 -27.84375 L 9.5625 -27.84375 L 9.5625 -9.6875 C 9.5625 -8.101562 9.820312 -6.945312 10.34375 -6.21875 C 10.863281 -5.488281 11.707031 -5.125 12.875 -5.125 C 14.050781 -5.125 14.898438 -5.488281 15.421875 -6.21875 C 15.941406 -6.945312 16.203125 -8.101562 16.203125 -9.6875 L 16.203125 -27.84375 L 24.4375 -27.84375 Z M 24.4375 -9.4375" transform="translate(104.59 51)"/></g></g></g><g fill="#141414"><g><g><path d="M 11.953125 -28.640625 C 16.191406 -28.640625 19.617188 -27.375 22.234375 -24.84375 L 18.59375 -20.5625 C 16.726562 -22.050781 14.742188 -22.796875 12.640625 -22.796875 C 11.648438 -22.796875 10.898438 -22.625 10.390625 -22.28125 C 9.890625 -21.9375 9.640625 -21.441406 9.640625 -20.796875 C 9.640625 -20.316406 9.78125 -19.921875 10.0625 -19.609375 C 10.34375 -19.304688 10.804688 -19.019531 11.453125 -18.75 C 12.109375 -18.488281 13.171875 -18.117188 14.640625 -17.640625 C 17.578125 -16.703125 19.691406 -15.523438 20.984375 -14.109375 C 22.273438 -12.703125 22.921875 -10.769531 22.921875 -8.3125 C 22.921875 -6.53125 22.445312 -4.953125 21.5 -3.578125 C 20.550781 -2.203125 19.195312 -1.128906 17.4375 -0.359375 C 15.675781 0.410156 13.597656 0.796875 11.203125 0.796875 C 8.742188 0.796875 6.582031 0.410156 4.71875 -0.359375 C 2.851562 -1.128906 1.28125 -2.144531 0 -3.40625 L 4.046875 -7.84375 C 6.148438 -6.03125 8.425781 -5.125 10.875 -5.125 C 12.019531 -5.125 12.882812 -5.351562 13.46875 -5.8125 C 14.0625 -6.28125 14.359375 -6.890625 14.359375 -7.640625 C 14.359375 -8.203125 14.226562 -8.664062 13.96875 -9.03125 C 13.71875 -9.40625 13.273438 -9.753906 12.640625 -10.078125 C 12.003906 -10.398438 11.070312 -10.75 9.84375 -11.125 C 6.613281 -12.132812 4.359375 -13.351562 3.078125 -14.78125 C 1.796875 -16.207031 1.15625 -17.988281 1.15625 -20.125 C 1.15625 -21.851562 1.617188 -23.359375 2.546875 -24.640625 C 3.484375 -25.921875 4.769531 -26.90625 6.40625 -27.59375 C 8.050781 -28.289062 9.898438 -28.640625 11.953125 -28.640625 Z M 11.953125 -28.640625" transform="translate(129.347 51)"/></g></g></g><g fill="#141414"><g><g><path d="M 11.953125 -28.640625 C 16.191406 -28.640625 19.617188 -27.375 22.234375 -24.84375 L 18.59375 -20.5625 C 16.726562 -22.050781 14.742188 -22.796875 12.640625 -22.796875 C 11.648438 -22.796875 10.898438 -22.625 10.390625 -22.28125 C 9.890625 -21.9375 9.640625 -21.441406 9.640625 -20.796875 C 9.640625 -20.316406 9.78125 -19.921875 10.0625 -19.609375 C 10.34375 -19.304688 10.804688 -19.019531 11.453125 -18.75 C 12.109375 -18.488281 13.171875 -18.117188 14.640625 -17.640625 C 17.578125 -16.703125 19.691406 -15.523438 20.984375 -14.109375 C 22.273438 -12.703125 22.921875 -10.769531 22.921875 -8.3125 C 22.921875 -6.53125 22.445312 -4.953125 21.5 -3.578125 C 20.550781 -2.203125 19.195312 -1.128906 17.4375 -0.359375 C 15.675781 0.410156 13.597656 0.796875 11.203125 0.796875 C 8.742188 0.796875 6.582031 0.410156 4.71875 -0.359375 C 2.851562 -1.128906 1.28125 -2.144531 0 -3.40625 L 4.046875 -7.84375 C 6.148438 -6.03125 8.425781 -5.125 10.875 -5.125 C 12.019531 -5.125 12.882812 -5.351562 13.46875 -5.8125 C 14.0625 -6.28125 14.359375 -6.890625 14.359375 -7.640625 C 14.359375 -8.203125 14.226562 -8.664062 13.96875 -9.03125 C 13.71875 -9.40625 13.273438 -9.753906 12.640625 -10.078125 C 12.003906 -10.398438 11.070312 -10.75 9.84375 -11.125 C 6.613281 -12.132812 4.359375 -13.351562 3.078125 -14.78125 C 1.796875 -16.207031 1.15625 -17.988281 1.15625 -20.125 C 1.15625 -21.851562 1.617188 -23.359375 2.546875 -24.640625 C 3.484375 -25.921875 4.769531 -26.90625 6.40625 -27.59375 C 8.050781 -28.289062 9.898438 -28.640625 11.953125 -28.640625 Z M 11.953125 -28.640625" transform="translate(159.664 51)"/></g></g></g><g fill="#141414"><g><g><path d="M 13.796875 -28.640625 C 17.960938 -28.640625 21.171875 -27.351562 23.421875 -24.78125 C 25.671875 -22.207031 26.796875 -18.597656 26.796875 -13.953125 C 26.796875 -10.941406 26.289062 -8.328125 25.28125 -6.109375 C 24.269531 -3.898438 22.789062 -2.195312 20.84375 -1 C 18.894531 0.195312 16.546875 0.796875 13.796875 0.796875 C 9.640625 0.796875 6.429688 -0.5 4.171875 -3.09375 C 1.921875 -5.695312 0.796875 -9.316406 0.796875 -13.953125 C 0.796875 -16.972656 1.300781 -19.582031 2.3125 -21.78125 C 3.332031 -23.976562 4.816406 -25.671875 6.765625 -26.859375 C 8.710938 -28.046875 11.054688 -28.640625 13.796875 -28.640625 Z M 13.796875 -22.796875 C 12.222656 -22.796875 11.085938 -22.125 10.390625 -20.78125 C 9.703125 -19.4375 9.359375 -17.160156 9.359375 -13.953125 C 9.359375 -10.753906 9.703125 -8.46875 10.390625 -7.09375 C 11.085938 -5.726562 12.222656 -5.046875 13.796875 -5.046875 C 15.398438 -5.046875 16.539062 -5.722656 17.21875 -7.078125 C 17.894531 -8.441406 18.234375 -10.734375 18.234375 -13.953125 C 18.234375 -17.160156 17.882812 -19.4375 17.1875 -20.78125 C 16.5 -22.125 15.367188 -22.796875 13.796875 -22.796875 Z M 13.796875 -22.796875" transform="translate(182.181 51)"/></g></g></g><g fill="#141414"><g><g><path d="M 16.3125 0 L 15.234375 -5.40625 L 8.640625 -5.40625 L 7.59375 0 L -1 0 L 7.125 -27.84375 L 16.953125 -27.84375 L 25.046875 0 Z M 9.796875 -11.15625 L 14.078125 -11.15625 L 11.921875 -22.078125 Z M 9.796875 -11.15625" transform="translate(208.778 51)"/></g></g></g><g fill="#141414"><g><g><path d="M 11.484375 -9.921875 L 9.953125 -9.921875 L 9.953125 0 L 1.71875 0 L 1.71875 -27.84375 L 11.921875 -27.84375 C 15.941406 -27.84375 18.9375 -27.128906 20.90625 -25.703125 C 22.882812 -24.273438 23.875 -22.039062 23.875 -19 C 23.875 -17.269531 23.488281 -15.828125 22.71875 -14.671875 C 21.945312 -13.523438 20.691406 -12.445312 18.953125 -11.4375 L 25.765625 0 L 16.640625 0 Z M 9.953125 -15.4375 L 12.125 -15.4375 C 13.238281 -15.4375 14.078125 -15.726562 14.640625 -16.3125 C 15.203125 -16.90625 15.484375 -17.800781 15.484375 -19 C 15.484375 -21.132812 14.226562 -22.203125 11.71875 -22.203125 L 9.953125 -22.203125 Z M 9.953125 -15.4375" transform="translate(231.816 51)"/></g></g></g><g fill="#141414"><g><g><path d="M 20 -27.84375 L 19.15625 -22.125 L 9.953125 -22.125 L 9.953125 -16.921875 L 18.046875 -16.921875 L 18.046875 -11.359375 L 9.953125 -11.359375 L 9.953125 -5.765625 L 19.796875 -5.765625 L 19.796875 0 L 1.71875 0 L 1.71875 -27.84375 Z M 20 -27.84375" transform="translate(255.774 51)"/></g></g></g><g fill="#141414"><g><g><path d="M 11.953125 -28.640625 C 16.191406 -28.640625 19.617188 -27.375 22.234375 -24.84375 L 18.59375 -20.5625 C 16.726562 -22.050781 14.742188 -22.796875 12.640625 -22.796875 C 11.648438 -22.796875 10.898438 -22.625 10.390625 -22.28125 C 9.890625 -21.9375 9.640625 -21.441406 9.640625 -20.796875 C 9.640625 -20.316406 9.78125 -19.921875 10.0625 -19.609375 C 10.34375 -19.304688 10.804688 -19.019531 11.453125 -18.75 C 12.109375 -18.488281 13.171875 -18.117188 14.640625 -17.640625 C 17.578125 -16.703125 19.691406 -15.523438 20.984375 -14.109375 C 22.273438 -12.703125 22.921875 -10.769531 22.921875 -8.3125 C 22.921875 -6.53125 22.445312 -4.953125 21.5 -3.578125 C 20.550781 -2.203125 19.195312 -1.128906 17.4375 -0.359375 C 15.675781 0.410156 13.597656 0.796875 11.203125 0.796875 C 8.742188 0.796875 6.582031 0.410156 4.71875 -0.359375 C 2.851562 -1.128906 1.28125 -2.144531 0 -3.40625 L 4.046875 -7.84375 C 6.148438 -6.03125 8.425781 -5.125 10.875 -5.125 C 12.019531 -5.125 12.882812 -5.351562 13.46875 -5.8125 C 14.0625 -6.28125 14.359375 -6.890625 14.359375 -7.640625 C 14.359375 -8.203125 14.226562 -8.664062 13.96875 -9.03125 C 13.71875 -9.40625 13.273438 -9.753906 12.640625 -10.078125 C 12.003906 -10.398438 11.070312 -10.75 9.84375 -11.125 C 6.613281 -12.132812 4.359375 -13.351562 3.078125 -14.78125 C 1.796875 -16.207031 1.15625 -17.988281 1.15625 -20.125 C 1.15625 -21.851562 1.617188 -23.359375 2.546875 -24.640625 C 3.484375 -25.921875 4.769531 -26.90625 6.40625 -27.59375 C 8.050781 -28.289062 9.898438 -28.640625 11.953125 -28.640625 Z M 11.953125 -28.640625" transform="translate(275.572 51)"/></g></g></g></svg>